<?xml version="1.0" encoding="UTF-8" standalone="no"?>
<!-- Created with Inkscape (http://www.inkscape.org/) -->

<svg
   xmlns:dc="http://purl.org/dc/elements/1.1/"
   xmlns:cc="http://creativecommons.org/ns#"
   xmlns:rdf="http://www.w3.org/1999/02/22-rdf-syntax-ns#"
   xmlns:svg="http://www.w3.org/2000/svg"
   xmlns="http://www.w3.org/2000/svg"
   xmlns:sodipodi="http://sodipodi.sourceforge.net/DTD/sodipodi-0.dtd"
   xmlns:inkscape="http://www.inkscape.org/namespaces/inkscape"
   width="210mm"
   height="297mm"
   viewBox="0 0 210 297"
   version="1.1"
   id="svg8"
   sodipodi:docname="ehtec.svg"
   inkscape:version="0.92.1 r15371"
   inkscape:export-filename="/home/pi/ehtec.svg.png"
   inkscape:export-xdpi="96"
   inkscape:export-ydpi="96">
  <defs
     id="defs2">
    <filter
       inkscape:menu-tooltip="Pressed metal with a rolled edge"
       inkscape:menu="Bevels"
       inkscape:label="Pressed Steel"
       style="color-interpolation-filters:sRGB;"
       id="filter3801">
      <feGaussianBlur
         result="result1"
         stdDeviation="3"
         id="feGaussianBlur3779" />
      <feBlend
         in2="result1"
         result="result5"
         mode="multiply"
         in="result1"
         id="feBlend3781" />
      <feGaussianBlur
         in="result5"
         result="result6"
         stdDeviation="1"
         id="feGaussianBlur3783" />
      <feComposite
         result="result8"
         in2="result5"
         in="result6"
         operator="xor"
         id="feComposite3785" />
      <feComposite
         in="result6"
         result="fbSourceGraphic"
         operator="xor"
         in2="result8"
         id="feComposite3787" />
      <feSpecularLighting
         in="fbSourceGraphic"
         result="result1"
         lighting-color="rgb(255,255,255)"
         surfaceScale="2"
         specularConstant="2.2"
         specularExponent="55"
         id="feSpecularLighting3791">
        <fePointLight
           x="-5000"
           y="-10000"
           z="20000"
           id="fePointLight3789" />
      </feSpecularLighting>
      <feComposite
         in2="fbSourceGraphic"
         in="result1"
         result="result2"
         operator="in"
         id="feComposite3793" />
      <feComposite
         in="fbSourceGraphic"
         result="result4"
         operator="arithmetic"
         k2="2"
         k3="1"
         in2="result2"
         id="feComposite3795" />
      <feComposite
         in2="result4"
         in="result4"
         operator="in"
         result="result91"
         id="feComposite3797" />
      <feBlend
         mode="darken"
         in2="result91"
         id="feBlend3799" />
    </filter>
    <filter
       inkscape:menu-tooltip="Pressed metal with a rolled edge"
       inkscape:menu="Bevels"
       inkscape:label="Pressed Steel"
       style="color-interpolation-filters:sRGB"
       id="filter3801-3">
      <feGaussianBlur
         result="result1"
         stdDeviation="3"
         id="feGaussianBlur3779-5" />
      <feBlend
         in2="result1"
         result="result5"
         mode="multiply"
         in="result1"
         id="feBlend3781-6" />
      <feGaussianBlur
         in="result5"
         result="result6"
         stdDeviation="1"
         id="feGaussianBlur3783-2" />
      <feComposite
         result="result8"
         in2="result5"
         in="result6"
         operator="xor"
         id="feComposite3785-9" />
      <feComposite
         in="result6"
         result="fbSourceGraphic"
         operator="xor"
         in2="result8"
         id="feComposite3787-1" />
      <feSpecularLighting
         in="fbSourceGraphic"
         result="result1"
         lighting-color="#ffffff"
         surfaceScale="2"
         specularConstant="2.20000005"
         specularExponent="55"
         id="feSpecularLighting3791-2">
        <fePointLight
           x="-5000"
           y="-10000"
           z="20000"
           id="fePointLight3789-7" />
      </feSpecularLighting>
      <feComposite
         in2="fbSourceGraphic"
         in="result1"
         result="result2"
         operator="in"
         id="feComposite3793-0" />
      <feComposite
         k4="0"
         k1="0"
         in="fbSourceGraphic"
         result="result4"
         operator="arithmetic"
         k2="2"
         k3="1"
         in2="result2"
         id="feComposite3795-9" />
      <feComposite
         in2="result4"
         in="result4"
         operator="in"
         result="result91"
         id="feComposite3797-3" />
      <feBlend
         mode="darken"
         in2="result91"
         id="feBlend3799-6" />
    </filter>
    <filter
       inkscape:menu-tooltip="Pressed metal with a rolled edge"
       inkscape:menu="Bevels"
       inkscape:label="Pressed Steel"
       style="color-interpolation-filters:sRGB"
       id="filter3801-6">
      <feGaussianBlur
         result="result1"
         stdDeviation="3"
         id="feGaussianBlur3779-2" />
      <feBlend
         in2="result1"
         result="result5"
         mode="multiply"
         in="result1"
         id="feBlend3781-61" />
      <feGaussianBlur
         in="result5"
         result="result6"
         stdDeviation="1"
         id="feGaussianBlur3783-8" />
      <feComposite
         result="result8"
         in2="result5"
         in="result6"
         operator="xor"
         id="feComposite3785-7" />
      <feComposite
         in="result6"
         result="fbSourceGraphic"
         operator="xor"
         in2="result8"
         id="feComposite3787-9" />
      <feSpecularLighting
         in="fbSourceGraphic"
         result="result1"
         lighting-color="#ffffff"
         surfaceScale="2"
         specularConstant="2.20000005"
         specularExponent="55"
         id="feSpecularLighting3791-20">
        <fePointLight
           x="-5000"
           y="-10000"
           z="20000"
           id="fePointLight3789-2" />
      </feSpecularLighting>
      <feComposite
         in2="fbSourceGraphic"
         in="result1"
         result="result2"
         operator="in"
         id="feComposite3793-3" />
      <feComposite
         k4="0"
         k1="0"
         in="fbSourceGraphic"
         result="result4"
         operator="arithmetic"
         k2="2"
         k3="1"
         in2="result2"
         id="feComposite3795-7" />
      <feComposite
         in2="result4"
         in="result4"
         operator="in"
         result="result91"
         id="feComposite3797-5" />
      <feBlend
         mode="darken"
         in2="result91"
         id="feBlend3799-9" />
    </filter>
  </defs>
  <sodipodi:namedview
     id="base"
     pagecolor="#ffffff"
     bordercolor="#666666"
     borderopacity="1.0"
     inkscape:pageopacity="0.0"
     inkscape:pageshadow="2"
     inkscape:zoom="0.49497475"
     inkscape:cx="142.85714"
     inkscape:cy="469.57559"
     inkscape:document-units="mm"
     inkscape:current-layer="layer1"
     showgrid="false"
     inkscape:window-width="1824"
     inkscape:window-height="920"
     inkscape:window-x="0"
     inkscape:window-y="36"
     inkscape:window-maximized="1" />
  <metadata
     id="metadata5">
    <rdf:RDF>
      <cc:Work
         rdf:about="">
        <dc:format>image/svg+xml</dc:format>
        <dc:type
           rdf:resource="http://purl.org/dc/dcmitype/StillImage" />
      </cc:Work>
    </rdf:RDF>
  </metadata>
  <g
     inkscape:label="Ebene 1"
     inkscape:groupmode="layer"
     id="layer1">
    <path
       style="fill:#008000;stroke-width:0.87299532;filter:url(#filter3801)"
       d="m 388.57227,223.94727 a 212.85715,212.85715 0 0 0 -42.48829,4.51367 l -10.37304,47.74414 a 169.28571,169.28571 0 0 0 -30.55664,13.5332 l -42.30274,-24.38476 a 212.85715,212.85715 0 0 0 -51.69531,54.0957 l 26.46094,41.14844 a 169.28571,169.28571 0 0 0 -12.05664,31.21093 l -47.10743,12.6543 a 212.85715,212.85715 0 0 0 -2.73828,32.3418 212.85715,212.85715 0 0 0 4.51172,42.48828 l 47.7461,10.37305 a 169.28571,169.28571 0 0 0 13.5332,30.55468 l -24.38672,42.30469 a 212.85715,212.85715 0 0 0 54.0957,51.69531 l 41.15039,-26.46093 a 169.28571,169.28571 0 0 0 31.20899,12.05468 l 12.65625,47.10938 a 212.85715,212.85715 0 0 0 32.3418,2.73828 212.85715,212.85715 0 0 0 42.48632,-4.51367 l 10.37305,-47.74414 a 169.28571,169.28571 0 0 0 30.55664,-13.53321 l 42.30274,24.38672 a 212.85715,212.85715 0 0 0 51.69531,-54.0957 l -26.46094,-41.15039 a 169.28571,169.28571 0 0 0 12.05469,-31.20899 l 47.10937,-12.65625 a 212.85715,212.85715 0 0 0 2.73828,-32.34179 212.85715,212.85715 0 0 0 -4.51171,-42.48633 l -47.7461,-10.37305 a 169.28571,169.28571 0 0 0 -13.5332,-30.55664 l 24.38672,-42.30273 A 212.85715,212.85715 0 0 0 505.92773,259.39062 L 464.7793,285.84961 A 169.28571,169.28571 0 0 0 433.56836,273.79492 L 420.91211,226.6875 a 212.85715,212.85715 0 0 0 -32.33984,-2.74023 z m -0.002,95.71484 A 117.14286,117.14286 0 0 1 505.71484,436.80469 117.14286,117.14286 0 0 1 388.57031,553.94727 117.14286,117.14286 0 0 1 271.42773,436.80469 117.14286,117.14286 0 0 1 388.57031,319.66211 Z"
       transform="matrix(0.22781668,0.13455072,-0.13455072,0.22781668,39.806537,-17.647687)"
       id="path3725"
       inkscape:connector-curvature="0" />
    <path
       style="fill:#008000;stroke-width:0.87299532;filter:url(#filter3801-3)"
       d="m 255.42872,42.571484 a 212.85715,212.85715 0 0 0 -42.48829,4.51367 l -10.37304,47.74414 A 169.28571,169.28571 0 0 0 172.01075,108.36249 L 129.70801,83.977734 A 212.85715,212.85715 0 0 0 78.012699,138.07343 l 26.460941,41.14844 A 169.28571,169.28571 0 0 0 92.416999,210.4328 l -47.10743,12.6543 a 212.85715,212.85715 0 0 0 -2.73828,32.3418 212.85715,212.85715 0 0 0 4.51172,42.48828 l 47.7461,10.37305 a 169.28571,169.28571 0 0 0 13.533201,30.55468 L 83.975589,381.1496 a 212.85715,212.85715 0 0 0 54.095701,51.69531 l 41.15039,-26.46093 a 169.28571,169.28571 0 0 0 31.20899,12.05468 l 12.65625,47.10938 a 212.85715,212.85715 0 0 0 32.3418,2.73828 212.85715,212.85715 0 0 0 42.48632,-4.51367 l 10.37305,-47.74414 a 169.28571,169.28571 0 0 0 30.55664,-13.53321 l 42.30274,24.38672 a 212.85715,212.85715 0 0 0 51.69531,-54.0957 l -26.46094,-41.15039 a 169.28571,169.28571 0 0 0 12.05469,-31.20899 l 47.10937,-12.65625 a 212.85715,212.85715 0 0 0 2.73828,-32.34179 212.85715,212.85715 0 0 0 -4.51171,-42.48633 l -47.7461,-10.37305 a 169.28571,169.28571 0 0 0 -13.5332,-30.55664 l 24.38672,-42.30273 A 212.85715,212.85715 0 0 0 372.78418,78.014834 L 331.63575,104.47382 A 169.28571,169.28571 0 0 0 300.42481,92.419134 l -12.65625,-47.10742 a 212.85715,212.85715 0 0 0 -32.33984,-2.74023 z m -0.002,95.714836 A 117.14286,117.14286 0 0 1 372.57129,255.4289 117.14286,117.14286 0 0 1 255.42676,372.57148 117.14286,117.14286 0 0 1 138.28418,255.4289 117.14286,117.14286 0 0 1 255.42676,138.28632 Z"
       id="path3725-0"
       inkscape:connector-curvature="0"
       transform="matrix(0.18023597,0,0,0.18023597,111.23834,139.3219)" />
    <path
       style="fill:#008000;stroke-width:0.87299532;filter:url(#filter3801-6)"
       d="m 255.42872,42.571484 a 212.85715,212.85715 0 0 0 -42.48829,4.51367 l -10.37304,47.74414 A 169.28571,169.28571 0 0 0 172.01075,108.36249 L 129.70801,83.977734 A 212.85715,212.85715 0 0 0 78.012699,138.07343 l 26.460941,41.14844 A 169.28571,169.28571 0 0 0 92.416999,210.4328 l -47.10743,12.6543 a 212.85715,212.85715 0 0 0 -2.73828,32.3418 212.85715,212.85715 0 0 0 4.51172,42.48828 l 47.7461,10.37305 a 169.28571,169.28571 0 0 0 13.533201,30.55468 L 83.975589,381.1496 a 212.85715,212.85715 0 0 0 54.095701,51.69531 l 41.15039,-26.46093 a 169.28571,169.28571 0 0 0 31.20899,12.05468 l 12.65625,47.10938 a 212.85715,212.85715 0 0 0 32.3418,2.73828 212.85715,212.85715 0 0 0 42.48632,-4.51367 l 10.37305,-47.74414 a 169.28571,169.28571 0 0 0 30.55664,-13.53321 l 42.30274,24.38672 a 212.85715,212.85715 0 0 0 51.69531,-54.0957 l -26.46094,-41.15039 a 169.28571,169.28571 0 0 0 12.05469,-31.20899 l 47.10937,-12.65625 a 212.85715,212.85715 0 0 0 2.73828,-32.34179 212.85715,212.85715 0 0 0 -4.51171,-42.48633 l -47.7461,-10.37305 a 169.28571,169.28571 0 0 0 -13.5332,-30.55664 l 24.38672,-42.30273 A 212.85715,212.85715 0 0 0 372.78418,78.014834 L 331.63575,104.47382 A 169.28571,169.28571 0 0 0 300.42481,92.419134 l -12.65625,-47.10742 a 212.85715,212.85715 0 0 0 -32.33984,-2.74023 z m -0.002,95.714836 A 117.14286,117.14286 0 0 1 372.57129,255.4289 117.14286,117.14286 0 0 1 255.42676,372.57148 117.14286,117.14286 0 0 1 138.28418,255.4289 117.14286,117.14286 0 0 1 255.42676,138.28632 Z"
       id="path3725-2"
       inkscape:connector-curvature="0"
       transform="matrix(0.12392735,-0.0197097,0.0197097,0.12392735,110.72197,64.760731)" />
    <path
       style="font-style:normal;font-weight:normal;font-size:55.95703506px;line-height:1.25;font-family:sans-serif;letter-spacing:0px;word-spacing:0px;fill:#0061be;fill-opacity:1;stroke:none;stroke-width:5.28727865"
       d="M 115.86914 720.86328 L 115.86914 881.95898 L 136.83203 881.95898 L 136.83203 798.21094 C 138.96621 793.94258 141.6857 790.60292 144.99023 788.19336 C 148.36361 785.71496 152.18479 784.47656 156.45312 784.47656 C 162.37375 784.47656 166.81508 786.74728 169.77539 791.29102 C 172.80455 795.76591 174.31836 803.13282 174.31836 813.39062 L 174.31836 881.95898 L 195.28125 881.95898 L 195.28125 813.59766 C 195.28125 798.17649 192.49437 786.74771 186.91797 779.3125 C 181.34156 771.87729 173.52591 768.16016 163.47461 768.16016 C 157.89821 768.16016 152.83866 769.67399 148.29492 772.70312 C 143.75119 775.66344 139.93003 779.82935 136.83203 785.19922 L 136.83203 720.86328 L 115.86914 720.86328 z M 224.91992 742.44727 L 224.91992 770.22461 L 210.35938 770.22461 L 210.35938 785.19922 L 224.91992 785.19922 L 224.91992 851.70312 C 224.91992 862.92478 227.08858 871.15063 231.42578 876.38281 C 235.83183 881.54615 241.99304 884.12891 249.91016 884.12891 C 253.00816 884.12891 256.00306 883.81882 258.89453 883.19922 C 261.85484 882.64846 264.50499 881.89156 266.8457 880.92773 L 264.67773 866.46875 C 262.75009 866.88182 261.06292 867.1919 259.61719 867.39844 C 258.2403 867.60497 256.72453 867.70898 255.07227 867.70898 C 252.31849 867.70898 250.08244 866.50331 248.36133 864.09375 C 246.64022 861.61535 245.7793 857.48606 245.7793 851.70312 L 245.7793 785.19922 L 263.23047 785.19922 L 263.23047 770.22461 L 245.7793 770.22461 L 245.7793 742.44727 L 224.91992 742.44727 z M 412.85742 768.49219 C 401.90927 769.70237 393.26632 774.33332 386.94531 782.41016 C 379.57895 791.9107 375.89453 803.95965 375.89453 818.55469 L 375.89453 833.94141 C 375.89453 848.53644 379.57895 860.54877 386.94531 869.98047 C 394.38052 879.41216 405.05044 884.12891 418.95703 884.12891 C 429.49024 884.12891 438.44028 880.51383 445.80664 873.28516 C 453.24185 866.05648 456.82223 857.17579 456.54688 846.64258 L 456.33984 846.02344 L 437.54492 846.02344 C 437.54492 852.7702 435.7557 858.1745 432.17578 862.23633 C 428.59587 866.22931 424.18921 868.22461 418.95703 868.22461 C 410.90223 868.22461 405.18783 865.02363 401.81445 858.62109 C 398.50992 852.21856 396.85742 843.9927 396.85742 833.94141 L 396.85742 818.55469 C 396.85742 808.64108 398.50992 800.44795 401.81445 793.97656 C 404.2706 789.26478 407.95603 786.27724 412.85742 784.99609 L 412.85742 768.49219 z M 327.85742 768.51953 L 327.85742 785.22852 C 331.12813 786.38019 333.78715 788.56964 335.82812 791.80859 C 338.99497 796.83424 340.57813 803.30554 340.57812 811.22266 L 340.57812 815.45508 L 301.23242 815.45508 C 301.64549 806.43645 303.67741 799.00217 307.32617 793.15039 C 309.46778 789.67533 312.02832 787.22835 315 785.79297 L 315 768.72266 C 305.99648 770.22789 298.34167 774.78541 292.04297 782.41016 C 284.26354 791.9107 280.37305 803.95965 280.37305 818.55469 L 280.37305 834.86914 C 280.37305 849.25764 284.3656 861.06585 292.35156 870.29102 C 300.33752 879.51618 310.97473 884.12891 324.26172 884.12891 C 331.9723 884.12891 338.78836 882.85389 344.70898 880.30664 C 350.62961 877.75939 355.3444 874.49103 358.85547 870.49805 L 352.24805 857.48633 C 348.53044 860.9974 344.60528 863.68221 340.47461 865.54102 C 336.34394 867.33097 331.38645 868.22461 325.60352 868.22461 C 317.82409 868.22461 311.80156 865.09297 307.5332 858.82812 C 303.33369 852.49445 301.23242 844.50737 301.23242 834.86914 L 301.23242 830.42969 L 361.33398 830.42969 L 361.33398 815.97266 C 361.33398 801.37762 357.92693 789.77742 351.11133 781.17188 C 345.41012 773.9158 337.65325 769.70598 327.85742 768.51953 z M 52.142578 768.56055 C 42.664483 769.87086 34.645357 774.47926 28.09375 782.41016 C 20.314322 791.9107 16.423828 803.95965 16.423828 818.55469 L 16.423828 834.86914 C 16.423828 849.25764 20.416382 861.06585 28.402344 870.29102 C 36.388305 879.51618 47.025512 884.12891 60.3125 884.12891 C 68.023084 884.12891 74.839139 882.85389 80.759766 880.30664 C 86.680392 877.75939 91.395181 874.49103 94.90625 870.49805 L 88.296875 857.48633 C 84.579272 860.9974 80.65606 863.68221 76.525391 865.54102 C 72.394721 867.33097 67.437235 868.22461 61.654297 868.22461 C 53.874869 868.22461 47.85039 865.09297 43.582031 858.82812 C 39.382517 852.49445 37.283203 844.50737 37.283203 834.86914 L 37.283203 830.42969 L 97.384766 830.42969 L 97.384766 815.97266 C 97.384766 801.37762 93.977714 789.77742 87.162109 781.17188 C 81.673537 774.18642 74.283452 770.01831 65 768.6582 L 65 785.66016 C 67.774793 786.89109 70.068036 788.93792 71.876953 791.80859 C 75.0438 796.83424 76.628906 803.30554 76.628906 811.22266 L 76.628906 815.45508 L 37.283203 815.45508 C 37.69627 806.43645 39.728195 799.00217 43.376953 793.15039 C 45.776877 789.25617 48.700235 786.6512 52.142578 785.31836 L 52.142578 768.56055 z M 425.71484 768.67578 L 425.71484 785.66211 C 428.2872 786.81813 430.5106 788.69285 432.38281 791.29102 C 435.82504 795.9036 437.54492 801.92808 437.54492 809.36328 L 456.33984 809.36328 L 456.65039 808.74414 C 456.85692 796.7652 453.41325 787.02358 446.32227 779.51953 C 440.78305 773.54587 433.90994 769.9373 425.71484 768.67578 z "
       transform="scale(0.26458333)"
       id="text3886" />
  </g>
</svg>
